<svg width="61" height="65" viewBox="0 0 61 65" fill="none" xmlns="http://www.w3.org/2000/svg">
<path d="M10.3548 11.169C8.24975 12.377 6.42675 14.993 7.83975 20.646C7.83975 20.646 -3.66025 30.646 6.83975 40.895C6.83975 40.895 3.83975 54.395 15.3398 55.145" stroke="url(#paint0_linear_413_14)" stroke-width="3" stroke-miterlimit="10" stroke-linecap="round" stroke-linejoin="round"/>
<path d="M23.4385 18.398C18.9505 18.398 15.3135 14.759 15.3135 10.273C15.3135 5.78501 18.9515 2.14801 23.4385 2.14801C27.9245 2.14801 31.5625 5.78501 31.5625 10.273V55.469C31.5625 58.188 30.1345 60.467 27.7005 61.928C23.9155 64.203 19.0035 62.977 16.7305 59.194C14.8615 56.087 15.3545 52.215 17.6865 49.673L22.2295 44.73" stroke="url(#paint1_linear_413_14)" stroke-width="3" stroke-miterlimit="10" stroke-linecap="round"/>
<path d="M30.2292 5.83002C31.0592 6.99402 31.3382 8.29302 30.7272 9.56202C30.6062 9.81402 30.4522 10.062 30.2642 10.3C28.9072 12.025 26.3872 12.325 24.6602 10.968" stroke="url(#paint2_linear_413_14)" stroke-width="3" stroke-miterlimit="10" stroke-linecap="round"/>
<path d="M18.1779 26.033C15.9069 25.474 14.5049 23.162 15.0629 20.892C15.6209 18.621 17.9349 17.222 20.2069 17.779" stroke="url(#paint3_linear_413_14)" stroke-width="3" stroke-miterlimit="10" stroke-linecap="round"/>
<path d="M31.3645 29.033C29.6145 27.484 26.6355 27.533 25.0845 29.285C25.0845 29.285 18.5625 39.061 13.7285 39.061" stroke="url(#paint4_linear_413_14)" stroke-width="3" stroke-miterlimit="10" stroke-linecap="round"/>
<path d="M14.6875 46.27L19.2075 47.781" stroke="url(#paint5_linear_413_14)" stroke-width="3" stroke-miterlimit="10" stroke-linecap="round"/>
<path d="M11.8115 30.646C11.8115 30.646 16.0615 32.646 19.0615 35.895" stroke="url(#paint6_linear_413_14)" stroke-width="3" stroke-miterlimit="10" stroke-linecap="round"/>
<path d="M54.3282 50.928C56.6765 50.928 58.5802 49.0243 58.5802 46.676C58.5802 44.3277 56.6765 42.424 54.3282 42.424C51.9799 42.424 50.0762 44.3277 50.0762 46.676C50.0762 49.0243 51.9799 50.928 54.3282 50.928Z" stroke="url(#paint7_linear_413_14)" stroke-width="3" stroke-miterlimit="10" stroke-linejoin="round"/>
<path d="M31.8672 39.008H37.6092L45.2752 46.676H50.0212" stroke="url(#paint8_linear_413_14)" stroke-width="3" stroke-miterlimit="10" stroke-linejoin="round"/>
<path d="M31.8672 49.104H37.6092L44.4592 55.875" stroke="url(#paint9_linear_413_14)" stroke-width="3" stroke-miterlimit="10" stroke-linejoin="round"/>
<path d="M47.4122 63.158C49.7605 63.158 51.6642 61.2543 51.6642 58.906C51.6642 56.5577 49.7605 54.654 47.4122 54.654C45.0638 54.654 43.1602 56.5577 43.1602 58.906C43.1602 61.2543 45.0638 63.158 47.4122 63.158Z" stroke="url(#paint10_linear_413_14)" stroke-width="3" stroke-miterlimit="10" stroke-linejoin="round"/>
<path d="M54.3282 22.576C56.6765 22.576 58.5802 20.6723 58.5802 18.324C58.5802 15.9757 56.6765 14.072 54.3282 14.072C51.9799 14.072 50.0762 15.9757 50.0762 18.324C50.0762 20.6723 51.9799 22.576 54.3282 22.576Z" stroke="url(#paint11_linear_413_14)" stroke-width="3" stroke-miterlimit="10" stroke-linejoin="round"/>
<path d="M31.8672 25.99H37.6092L45.2752 18.324H50.0762" stroke="url(#paint12_linear_413_14)" stroke-width="3" stroke-miterlimit="10" stroke-linejoin="round"/>
<path d="M31.8672 15.894H37.6092L44.3872 9.117" stroke="url(#paint13_linear_413_14)" stroke-width="3" stroke-miterlimit="10" stroke-linejoin="round"/>
<path d="M47.4122 10.345C49.7605 10.345 51.6642 8.44132 51.6642 6.093C51.6642 3.74469 49.7605 1.841 47.4122 1.841C45.0638 1.841 43.1602 3.74469 43.1602 6.093C43.1602 8.44132 45.0638 10.345 47.4122 10.345Z" stroke="url(#paint14_linear_413_14)" stroke-width="3" stroke-miterlimit="10" stroke-linejoin="round"/>
<path d="M31.7637 32.499H42.3337" stroke="url(#paint15_linear_413_14)" stroke-width="3" stroke-miterlimit="10" stroke-linejoin="round"/>
<path d="M46.5225 36.752C48.8708 36.752 50.7745 34.8483 50.7745 32.5C50.7745 30.1517 48.8708 28.248 46.5225 28.248C44.1742 28.248 42.2705 30.1517 42.2705 32.5C42.2705 34.8483 44.1742 36.752 46.5225 36.752Z" stroke="url(#paint16_linear_413_14)" stroke-width="3" stroke-miterlimit="10" stroke-linejoin="round"/>
<path d="M25.8076 53.93C26.6126 52.44 28.4836 51.879 29.9726 52.682C31.0386 53.256 31.6016 54.383 31.5546 55.522" stroke="url(#paint17_linear_413_14)" stroke-width="3" stroke-miterlimit="10" stroke-linecap="round"/>
<defs>
<linearGradient id="paint0_linear_413_14" x1="16.0247" y1="72.4093" x2="-9.85296" y2="67.8747" gradientUnits="userSpaceOnUse">
<stop stop-color="#554DDE"/>
<stop offset="1" stop-color="#F44E77"/>
<stop offset="1" stop-color="#F44E77"/>
</linearGradient>
<linearGradient id="paint1_linear_413_14" x1="32.4238" y1="86.9891" x2="-0.290994" y2="81.7853" gradientUnits="userSpaceOnUse">
<stop stop-color="#554DDE"/>
<stop offset="1" stop-color="#F44E77"/>
<stop offset="1" stop-color="#F44E77"/>
</linearGradient>
<linearGradient id="paint2_linear_413_14" x1="31.3961" y1="14.169" x2="22.0037" y2="8.18497" gradientUnits="userSpaceOnUse">
<stop stop-color="#554DDE"/>
<stop offset="1" stop-color="#F44E77"/>
<stop offset="1" stop-color="#F44E77"/>
</linearGradient>
<linearGradient id="paint3_linear_413_14" x1="20.4861" y1="29.3214" x2="10.9548" y2="25.7474" gradientUnits="userSpaceOnUse">
<stop stop-color="#554DDE"/>
<stop offset="1" stop-color="#F44E77"/>
<stop offset="1" stop-color="#F44E77"/>
</linearGradient>
<linearGradient id="paint4_linear_413_14" x1="32.2994" y1="43.4354" x2="13.0482" y2="25.2627" gradientUnits="userSpaceOnUse">
<stop stop-color="#554DDE"/>
<stop offset="1" stop-color="#F44E77"/>
<stop offset="1" stop-color="#F44E77"/>
</linearGradient>
<linearGradient id="paint5_linear_413_14" x1="19.4471" y1="48.3742" x2="17.2165" y2="44.3946" gradientUnits="userSpaceOnUse">
<stop stop-color="#554DDE"/>
<stop offset="1" stop-color="#F44E77"/>
<stop offset="1" stop-color="#F44E77"/>
</linearGradient>
<linearGradient id="paint6_linear_413_14" x1="19.4458" y1="37.9557" x2="10.53" y2="30.6111" gradientUnits="userSpaceOnUse">
<stop stop-color="#554DDE"/>
<stop offset="1" stop-color="#F44E77"/>
<stop offset="1" stop-color="#F44E77"/>
</linearGradient>
<linearGradient id="paint7_linear_413_14" x1="59.031" y1="54.2666" x2="46.0821" y2="46.5438" gradientUnits="userSpaceOnUse">
<stop stop-color="#554DDE"/>
<stop offset="1" stop-color="#F44E77"/>
<stop offset="1" stop-color="#F44E77"/>
</linearGradient>
<linearGradient id="paint8_linear_413_14" x1="50.9835" y1="49.6863" x2="38.4656" y2="32.0112" gradientUnits="userSpaceOnUse">
<stop stop-color="#554DDE"/>
<stop offset="1" stop-color="#F44E77"/>
<stop offset="1" stop-color="#F44E77"/>
</linearGradient>
<linearGradient id="paint9_linear_413_14" x1="45.1267" y1="58.5332" x2="33.4713" y2="45.6059" gradientUnits="userSpaceOnUse">
<stop stop-color="#554DDE"/>
<stop offset="1" stop-color="#F44E77"/>
<stop offset="1" stop-color="#F44E77"/>
</linearGradient>
<linearGradient id="paint10_linear_413_14" x1="52.115" y1="66.4965" x2="39.1661" y2="58.7738" gradientUnits="userSpaceOnUse">
<stop stop-color="#554DDE"/>
<stop offset="1" stop-color="#F44E77"/>
<stop offset="1" stop-color="#F44E77"/>
</linearGradient>
<linearGradient id="paint11_linear_413_14" x1="59.031" y1="25.9146" x2="46.0821" y2="18.1918" gradientUnits="userSpaceOnUse">
<stop stop-color="#554DDE"/>
<stop offset="1" stop-color="#F44E77"/>
<stop offset="1" stop-color="#F44E77"/>
</linearGradient>
<linearGradient id="paint12_linear_413_14" x1="51.0415" y1="28.9995" x2="38.5405" y2="11.2902" gradientUnits="userSpaceOnUse">
<stop stop-color="#554DDE"/>
<stop offset="1" stop-color="#F44E77"/>
<stop offset="1" stop-color="#F44E77"/>
</linearGradient>
<linearGradient id="paint13_linear_413_14" x1="45.0509" y1="18.5546" x2="33.3774" y2="5.69262" gradientUnits="userSpaceOnUse">
<stop stop-color="#554DDE"/>
<stop offset="1" stop-color="#F44E77"/>
<stop offset="1" stop-color="#F44E77"/>
</linearGradient>
<linearGradient id="paint14_linear_413_14" x1="52.115" y1="13.6836" x2="39.1661" y2="5.96081" gradientUnits="userSpaceOnUse">
<stop stop-color="#554DDE"/>
<stop offset="1" stop-color="#F44E77"/>
<stop offset="1" stop-color="#F44E77"/>
</linearGradient>
<linearGradient id="paint15_linear_413_14" x1="42.894" y1="33.8915" x2="42.3584" y2="30.5153" gradientUnits="userSpaceOnUse">
<stop stop-color="#554DDE"/>
<stop offset="1" stop-color="#F44E77"/>
<stop offset="1" stop-color="#F44E77"/>
</linearGradient>
<linearGradient id="paint16_linear_413_14" x1="51.2253" y1="40.0905" x2="38.2765" y2="32.3678" gradientUnits="userSpaceOnUse">
<stop stop-color="#554DDE"/>
<stop offset="1" stop-color="#F44E77"/>
<stop offset="1" stop-color="#F44E77"/>
</linearGradient>
<linearGradient id="paint17_linear_413_14" x1="31.8621" y1="56.7808" x2="26.3254" y2="50.8596" gradientUnits="userSpaceOnUse">
<stop stop-color="#554DDE"/>
<stop offset="1" stop-color="#F44E77"/>
<stop offset="1" stop-color="#F44E77"/>
</linearGradient>
</defs>
</svg>
