<svg width="47" height="69" viewBox="0 0 47 69" fill="none" xmlns="http://www.w3.org/2000/svg">
<path d="M23.5088 49.498V58.0214" stroke="#394553" stroke-width="3" stroke-miterlimit="10" stroke-linecap="round"/>
<path d="M43.7149 58.003V53.7733H3.30273V58.003" stroke="#394553" stroke-width="3" stroke-miterlimit="10" stroke-linecap="round" stroke-linejoin="round"/>
<path d="M23.5088 5.30451V2" stroke="#394553" stroke-width="3" stroke-miterlimit="10" stroke-linecap="round" stroke-linejoin="round"/>
<path d="M23.5088 37.2837V26.4386" stroke="#394553" stroke-width="3" stroke-miterlimit="10" stroke-linejoin="round"/>
<path d="M23.4744 26.4386L20.1689 23.1185" stroke="#394553" stroke-width="3" stroke-miterlimit="10" stroke-linecap="round" stroke-linejoin="round"/>
<path d="M23.542 26.4386L26.8474 23.1185" stroke="#394553" stroke-width="3" stroke-miterlimit="10" stroke-linecap="round" stroke-linejoin="round"/>
<path d="M23.5092 10.7335C16.987 10.7335 11.6768 16.1341 11.6768 22.7979C11.6768 25.9563 12.7828 28.1894 14.046 29.8033C16.0143 32.1543 18.4346 33.2412 19.1416 37.5056H27.876C28.5838 33.2412 31.0033 32.1543 32.9706 29.8033C34.2356 28.1885 35.3417 25.9563 35.3417 22.7979C35.3417 16.1341 30.0315 10.7335 23.5092 10.7335Z" stroke="#394553" stroke-width="3" stroke-miterlimit="10"/>
<path d="M19.9551 42.498H27.0628" stroke="#394553" stroke-width="3" stroke-miterlimit="10" stroke-linecap="round" stroke-linejoin="round"/>
<path d="M37.042 11.1682L39.3774 8.83093" stroke="#394553" stroke-width="3" stroke-miterlimit="10" stroke-linecap="round" stroke-linejoin="round"/>
<path d="M9.97789 11.1682L7.64062 8.83093" stroke="#394553" stroke-width="3" stroke-miterlimit="10" stroke-linecap="round" stroke-linejoin="round"/>
<path d="M43.6696 67.1494C44.4046 67.1494 45.0004 66.5536 45.0004 65.8187C45.0004 65.0837 44.4046 64.4879 43.6696 64.4879C42.9347 64.4879 42.3389 65.0837 42.3389 65.8187C42.3389 66.5536 42.9347 67.1494 43.6696 67.1494Z" fill="#394553" stroke="#394553" stroke-width="3" stroke-miterlimit="10"/>
<path d="M23.4987 67.1494C24.2337 67.1494 24.8295 66.5536 24.8295 65.8187C24.8295 65.0837 24.2337 64.4879 23.4987 64.4879C22.7638 64.4879 22.168 65.0837 22.168 65.8187C22.168 66.5536 22.7638 67.1494 23.4987 67.1494Z" fill="#394553" stroke="#394553" stroke-width="3" stroke-miterlimit="10"/>
<path d="M3.33075 67.1494C4.06571 67.1494 4.66151 66.5536 4.66151 65.8187C4.66151 65.0837 4.06571 64.4879 3.33075 64.4879C2.5958 64.4879 2 65.0837 2 65.8187C2 66.5536 2.5958 67.1494 3.33075 67.1494Z" fill="#394553" stroke="#394553" stroke-width="3" stroke-miterlimit="10"/>
</svg>
