<svg width="64" height="64" viewBox="0 0 64 64" fill="none" xmlns="http://www.w3.org/2000/svg">
<path d="M31.9814 29.917V37.542" stroke="#394553" stroke-width="3" stroke-miterlimit="10" stroke-linecap="round"/>
<path d="M38.1833 41.981L31.9823 37.537L25.7803 41.981" stroke="#394553" stroke-width="3" stroke-miterlimit="10" stroke-linecap="round"/>
<path d="M21.0225 28.414V23.932C21.0225 20.015 23.8565 18.57 27.5025 18.57L31.9845 23.506L36.1435 18.57C39.7895 18.57 42.9405 20.015 42.9405 23.932V28.414" stroke="#394553" stroke-width="3" stroke-miterlimit="10" stroke-linejoin="round"/>
<path d="M37.0521 9.055C37.0521 11.887 34.7691 14.203 31.9811 14.203C29.1941 14.203 26.9121 11.886 26.9121 9.055V7.148C26.9121 4.317 29.1941 2 31.9811 2C34.7691 2 37.0521 4.317 37.0521 7.148V9.055Z" stroke="#394553" stroke-width="3" stroke-miterlimit="10"/>
<path d="M40.043 63.361V58.879C40.043 54.962 42.877 53.517 46.523 53.517L51.007 58.453L55.165 53.517C58.813 53.517 61.964 54.962 61.964 58.879V63.361" stroke="#394553" stroke-width="3" stroke-miterlimit="10" stroke-linejoin="round"/>
<path d="M56.0736 44.001C56.0736 46.832 53.7926 49.149 51.0036 49.149C48.2146 49.149 45.9336 46.832 45.9336 44.001V42.094C45.9336 39.263 48.2146 36.946 51.0036 36.946C53.7926 36.946 56.0736 39.263 56.0736 42.094V44.001Z" stroke="#394553" stroke-width="3" stroke-miterlimit="10"/>
<path d="M2 63.361V58.879C2 54.962 4.834 53.517 8.48 53.517L12.963 58.453L17.122 53.517C20.769 53.517 23.92 54.962 23.92 58.879V63.361" stroke="#394553" stroke-width="3" stroke-miterlimit="10" stroke-linejoin="round"/>
<path d="M18.0296 44.001C18.0296 46.832 15.7486 49.149 12.9596 49.149C10.1716 49.149 7.88965 46.832 7.88965 44.001V42.094C7.88965 39.263 10.1716 36.946 12.9596 36.946C15.7486 36.946 18.0296 39.263 18.0296 42.094V44.001Z" stroke="#394553" stroke-width="3" stroke-miterlimit="10"/>
</svg>
